<svg class="diagram-root" style="background: #f5f6f6" xmlns="http://www.w3.org/2000/svg" xmlns:xlink="http://www.w3.org/1999/xlink"><style>.diagram-root { font-family: "Helvetica Neue", sans-serif; font-size: 12px; } .t { overflow: visible; } .t-bg { y: 40; fill: #fff;   } .th { fill: #005aa0;   } .tht { fill: #fff; font-size: 14px;  } .tf { fill: #323c46; overflow: visible; } .tf.pk { fill: #005aa0; font-weight: bold; } .tf.fk { font-weight: bold; } .ty { fill: #adb1b5; font-weight: normal; text-anchor: end; } .r { fill: transparent; stroke: #c3c3c3; stroke-width: 1; } .l { stroke: 1; } .i { fill: #c2c7ce; stroke: #c2c7ce; } .i.ix { fill: #afb3b6; stroke: #000; } .fa { fill: transparent; overflow: visible; } .fa .bg.hover { fill: #f7f7f7; } .c { cy: 12; r: 4; stroke: #d2d2dc; fill: #d2d2dc; } .hr { fill: transparent; stroke: #323c46; stroke-opacity: 0.035; stroke-width: 13; } .dc { stroke: #fa5a3c; fill: #fa5a3c; } .x { stroke: white; stroke-width: 1; } .hl .th { fill: #1b9bff; } .hl .tht {  } .fhl .bg { fill: #e7f4ff; } .fhls .bg {  } .r.hl { stroke: #1b9bff; } .dim { opacity: 0.25; }</style><g class="drawing-wrapper" transform="translate(169, 266) scale(1,1)"><g class="rs"><path d="M -147 162 m -1, 0 a 1,1 0 1,0 2,0 a 1,1 0 1,0 -2,0 M -147 162 m -0.5, 0 a 0.5,0.5 0 1,0 1,0 a 0.5,0.5 0 1,0 -1,0  M-147 162 L-147 162 -159 162 M -147 168 m -1, 0 a 1,1 0 1,0 2,0 a 1,1 0 1,0 -2,0 M -147 168 m -0.5, 0 a 0.5,0.5 0 1,0 1,0 a 0.5,0.5 0 1,0 -1,0  M-147 168 L-147 168 -154 162 -147 156 M -147 156 m -1, 0 a 1,1 0 1,0 2,0 a 1,1 0 1,0 -2,0 M -147 156 m -0.5, 0 a 0.5,0.5 0 1,0 1,0 a 0.5,0.5 0 1,0 -1,0  M-159 162 C -209 162, -215 -179, -149 -179 M -137 -179 m -1, 0 a 1,1 0 1,0 2,0 a 1,1 0 1,0 -2,0 M -137 -179 m -0.5, 0 a 0.5,0.5 0 1,0 1,0 a 0.5,0.5 0 1,0 -1,0  M-137 -179 L-137 -179 -149 -179 M-143 -173 L-143 -173 -143 -185" id="h1000995654" class="r"></path><path d="M 145 362 m -1, 0 a 1,1 0 1,0 2,0 a 1,1 0 1,0 -2,0 M 145 362 m -0.5, 0 a 0.5,0.5 0 1,0 1,0 a 0.5,0.5 0 1,0 -1,0  M145 362 L145 362 133 362 M 145 368 m -1, 0 a 1,1 0 1,0 2,0 a 1,1 0 1,0 -2,0 M 145 368 m -0.5, 0 a 0.5,0.5 0 1,0 1,0 a 0.5,0.5 0 1,0 -1,0  M145 368 L145 368 138 362 145 356 M 145 356 m -1, 0 a 1,1 0 1,0 2,0 a 1,1 0 1,0 -2,0 M 145 356 m -0.5, 0 a 0.5,0.5 0 1,0 1,0 a 0.5,0.5 0 1,0 -1,0  M133 362 Q 104.85 362, 76.7 249.5 T 20.4 137 M 8.4 137 m -1, 0 a 1,1 0 1,0 2,0 a 1,1 0 1,0 -2,0 M 8.4 137 m -0.5, 0 a 0.5,0.5 0 1,0 1,0 a 0.5,0.5 0 1,0 -1,0  M8.4 137 L8.4 137 20.4 137 M14.4 143 L14.4 143 14.4 131" id="h2839220844" class="r"></path><path d="M 262 -96 m -1, 0 a 1,1 0 1,0 2,0 a 1,1 0 1,0 -2,0 M 262 -96 m -0.5, 0 a 0.5,0.5 0 1,0 1,0 a 0.5,0.5 0 1,0 -1,0  M262 -96 L262 -96 250 -96 M 262 -90 m -1, 0 a 1,1 0 1,0 2,0 a 1,1 0 1,0 -2,0 M 262 -90 m -0.5, 0 a 0.5,0.5 0 1,0 1,0 a 0.5,0.5 0 1,0 -1,0  M262 -90 L262 -90 255 -96 262 -102 M 262 -102 m -1, 0 a 1,1 0 1,0 2,0 a 1,1 0 1,0 -2,0 M 262 -102 m -0.5, 0 a 0.5,0.5 0 1,0 1,0 a 0.5,0.5 0 1,0 -1,0  M250 -96 Q 201.6 -96, 153.2 -137.5 T 56.4 -179 M 44.4 -179 m -1, 0 a 1,1 0 1,0 2,0 a 1,1 0 1,0 -2,0 M 44.4 -179 m -0.5, 0 a 0.5,0.5 0 1,0 1,0 a 0.5,0.5 0 1,0 -1,0  M44.4 -179 L44.4 -179 56.4 -179 M50.4 -173 L50.4 -173 50.4 -185" id="h3165736392" class="r"></path><path d="M 262 -71 m -1, 0 a 1,1 0 1,0 2,0 a 1,1 0 1,0 -2,0 M 262 -71 m -0.5, 0 a 0.5,0.5 0 1,0 1,0 a 0.5,0.5 0 1,0 -1,0  M262 -71 L262 -71 250 -71 M 262 -65 m -1, 0 a 1,1 0 1,0 2,0 a 1,1 0 1,0 -2,0 M 262 -65 m -0.5, 0 a 0.5,0.5 0 1,0 1,0 a 0.5,0.5 0 1,0 -1,0  M262 -65 L262 -65 255 -71 262 -77 M 262 -77 m -1, 0 a 1,1 0 1,0 2,0 a 1,1 0 1,0 -2,0 M 262 -77 m -0.5, 0 a 0.5,0.5 0 1,0 1,0 a 0.5,0.5 0 1,0 -1,0  M250 -71 Q 192.6 -71, 135.2 33 T 20.4 137 M 8.4 137 m -1, 0 a 1,1 0 1,0 2,0 a 1,1 0 1,0 -2,0 M 8.4 137 m -0.5, 0 a 0.5,0.5 0 1,0 1,0 a 0.5,0.5 0 1,0 -1,0  M8.4 137 L8.4 137 20.4 137 M14.4 143 L14.4 143 14.4 131" id="h1609490876" class="r"></path><path d="M 163 158 m -1, 0 a 1,1 0 1,0 2,0 a 1,1 0 1,0 -2,0 M 163 158 m -0.5, 0 a 0.5,0.5 0 1,0 1,0 a 0.5,0.5 0 1,0 -1,0  M163 158 L163 158 151 158 M 163 164 m -1, 0 a 1,1 0 1,0 2,0 a 1,1 0 1,0 -2,0 M 163 164 m -0.5, 0 a 0.5,0.5 0 1,0 1,0 a 0.5,0.5 0 1,0 -1,0  M163 164 L163 164 156 158 163 152 M 163 152 m -1, 0 a 1,1 0 1,0 2,0 a 1,1 0 1,0 -2,0 M 163 152 m -0.5, 0 a 0.5,0.5 0 1,0 1,0 a 0.5,0.5 0 1,0 -1,0  M151 158 Q 118.35 158, 85.7 147.5 T 20.4 137 M 8.4 137 m -1, 0 a 1,1 0 1,0 2,0 a 1,1 0 1,0 -2,0 M 8.4 137 m -0.5, 0 a 0.5,0.5 0 1,0 1,0 a 0.5,0.5 0 1,0 -1,0  M8.4 137 L8.4 137 20.4 137 M14.4 143 L14.4 143 14.4 131" id="h1838990473" class="r"></path><path d="M 315.7 183 m -1, 0 a 1,1 0 1,0 2,0 a 1,1 0 1,0 -2,0 M 315.7 183 m -0.5, 0 a 0.5,0.5 0 1,0 1,0 a 0.5,0.5 0 1,0 -1,0  M315.7 183 L315.7 183 327.7 183 M 315.7 189 m -1, 0 a 1,1 0 1,0 2,0 a 1,1 0 1,0 -2,0 M 315.7 189 m -0.5, 0 a 0.5,0.5 0 1,0 1,0 a 0.5,0.5 0 1,0 -1,0  M315.7 189 L315.7 189 322.7 183 315.7 177 M 315.7 177 m -1, 0 a 1,1 0 1,0 2,0 a 1,1 0 1,0 -2,0 M 315.7 177 m -0.5, 0 a 0.5,0.5 0 1,0 1,0 a 0.5,0.5 0 1,0 -1,0  M327.7 183 Q 354.53 183, 381.35 184.5 T 435 186 M 447 186 m -1, 0 a 1,1 0 1,0 2,0 a 1,1 0 1,0 -2,0 M 447 186 m -0.5, 0 a 0.5,0.5 0 1,0 1,0 a 0.5,0.5 0 1,0 -1,0  M447 186 L447 186 435 186 M441 192 L441 192 441 180" id="h1262072901" class="r"></path></g><g class="hrs"></g><g class="ts"><svg width="181.4" height="175" x="-137" y="-236" id="h1537667952" class="t"><rect height="40" width="181.4" class="th"></rect><text x="13" y="25" class="tht">User</text><rect height="135" width="181.4" class="t-bg" y="40"></rect><text x="13" y="61" class="tf pk">UserID<tspan x="168.4" class="ty">int</tspan></text><path d="M7,14A2,2 0 0,1 5,12A2,2 0 0,1 7,10A2,2 0 0,1 9,12A2,2 0 0,1 7,14M12.65,10C11.83,7.67 9.61,6 7, 6A6, 6 0 0, 0 1, 12A6, 6 0 0, 0 7, 18C9.61, 18 11.83, 16.33 12.65, 14H17V18H21V14H23V10H12.65Z" class="i pk" transform="translate(135.726171875, 48) scale(0.65)"></path><text x="13" y="86" class="tf">Username<tspan x="168.4" class="ty">string</tspan></text><path d="M22,18V22H18V19H15V16H12L9.74,13.74C9.19,13.91 8.61,14 8,14A6,6 0 0,1 2,8A6,6 0 0,1 8,2A6,6 0 0,1 14,8C14,8.61 13.91, 9.19 13.74, 9.74L22, 18M7, 5A2, 2 0 0, 0 5, 7A2, 2 0 0, 0 7, 9A2, 2 0 0, 0 9, 7A2, 2 0 0, 0 7, 5Z" class="i uq" transform="translate(123.05625, 75.5) scale(0.5)"></path><text x="13" y="111" class="tf">PasswordHash<tspan x="168.4" class="ty">string</tspan></text><text x="13" y="136" class="tf">RegistrationDate<tspan x="168.4" class="ty">datetime</tspan></text><text x="13" y="161" class="tf">Status<tspan x="168.4" class="ty">string</tspan></text></svg><svg width="155.4" height="225" x="-147" y="80" id="h267283657" class="t"><rect height="40" width="155.4" class="th"></rect><text x="13" y="25" class="tht">File</text><rect height="185" width="155.4" class="t-bg" y="40"></rect><text x="13" y="61" class="tf pk">FileID<tspan x="142.4" class="ty">int</tspan></text><path d="M7,14A2,2 0 0,1 5,12A2,2 0 0,1 7,10A2,2 0 0,1 9,12A2,2 0 0,1 7,14M12.65,10C11.83,7.67 9.61,6 7, 6A6, 6 0 0, 0 1, 12A6, 6 0 0, 0 7, 18C9.61, 18 11.83, 16.33 12.65, 14H17V18H21V14H23V10H12.65Z" class="i pk" transform="translate(109.726171875, 48) scale(0.65)"></path><text x="13" y="86" class="tf fk">UserID<tspan x="142.4" class="ty">int</tspan></text><text x="13" y="111" class="tf">FileName<tspan x="142.4" class="ty">string</tspan></text><text x="13" y="136" class="tf">FileSize<tspan x="142.4" class="ty">bigint</tspan></text><text x="13" y="161" class="tf">ContentType<tspan x="142.4" class="ty">string</tspan></text><text x="13" y="186" class="tf">UploadDate<tspan x="142.4" class="ty">datetime</tspan></text><text x="13" y="211" class="tf">StoragePath<tspan x="142.4" class="ty">string</tspan></text></svg><svg width="170.73" height="200" x="145" y="280" id="h2795489298" class="t"><rect height="40" width="170.73" class="th"></rect><text x="13" y="25" class="tht">FileLink</text><rect height="160" width="170.73" class="t-bg" y="40"></rect><text x="13" y="61" class="tf pk">LinkID<tspan x="157.73" class="ty">int</tspan></text><path d="M7,14A2,2 0 0,1 5,12A2,2 0 0,1 7,10A2,2 0 0,1 9,12A2,2 0 0,1 7,14M12.65,10C11.83,7.67 9.61,6 7, 6A6, 6 0 0, 0 1, 12A6, 6 0 0, 0 7, 18C9.61, 18 11.83, 16.33 12.65, 14H17V18H21V14H23V10H12.65Z" class="i pk" transform="translate(125.05617187499999, 48) scale(0.65)"></path><text x="13" y="86" class="tf fk">FileID<tspan x="157.73" class="ty">int</tspan></text><text x="13" y="111" class="tf">LinkCode<tspan x="157.73" class="ty">string</tspan></text><path d="M22,18V22H18V19H15V16H12L9.74,13.74C9.19,13.91 8.61,14 8,14A6,6 0 0,1 2,8A6,6 0 0,1 8,2A6,6 0 0,1 14,8C14,8.61 13.91, 9.19 13.74, 9.74L22, 18M7, 5A2, 2 0 0, 0 5, 7A2, 2 0 0, 0 7, 9A2, 2 0 0, 0 9, 7A2, 2 0 0, 0 7, 5Z" class="i uq" transform="translate(112.38624999999999, 100.5) scale(0.5)"></path><text x="13" y="136" class="tf">ExpirationDate<tspan x="157.73" class="ty">datetime</tspan></text><text x="13" y="161" class="tf">CreatedAt<tspan x="157.73" class="ty">datetime</tspan></text><text x="13" y="186" class="tf">IsActive<tspan x="157.73" class="ty">bool</tspan></text></svg><svg width="170.07" height="200" x="262" y="-178" id="h696601245" class="t"><rect height="40" width="170.07" class="th"></rect><text x="13" y="25" class="tht">OperationHistory</text><rect height="160" width="170.07" class="t-bg" y="40"></rect><text x="13" y="61" class="tf pk">OperationID<tspan x="157.07" class="ty">int</tspan></text><path d="M7,14A2,2 0 0,1 5,12A2,2 0 0,1 7,10A2,2 0 0,1 9,12A2,2 0 0,1 7,14M12.65,10C11.83,7.67 9.61,6 7, 6A6, 6 0 0, 0 1, 12A6, 6 0 0, 0 7, 18C9.61, 18 11.83, 16.33 12.65, 14H17V18H21V14H23V10H12.65Z" class="i pk" transform="translate(124.396171875, 48) scale(0.65)"></path><text x="13" y="86" class="tf fk">UserID<tspan x="157.07" class="ty">int</tspan></text><text x="13" y="111" class="tf fk">FileID<tspan x="157.07" class="ty">int</tspan></text><text x="13" y="136" class="tf">OperationType<tspan x="157.07" class="ty">string</tspan></text><text x="13" y="161" class="tf">OperationDate<tspan x="157.07" class="ty">datetime</tspan></text><text x="13" y="186" class="tf">Status<tspan x="157.07" class="ty">string</tspan></text></svg><svg width="110.69" height="100" x="447" y="129" id="h2630299961" class="t"><rect height="40" width="110.69" class="th"></rect><text x="13" y="25" class="tht">FileTag</text><rect height="60" width="110.69" class="t-bg" y="40"></rect><text x="13" y="61" class="tf pk">TagID<tspan x="97.69" class="ty">int</tspan></text><path d="M7,14A2,2 0 0,1 5,12A2,2 0 0,1 7,10A2,2 0 0,1 9,12A2,2 0 0,1 7,14M12.65,10C11.83,7.67 9.61,6 7, 6A6, 6 0 0, 0 1, 12A6, 6 0 0, 0 7, 18C9.61, 18 11.83, 16.33 12.65, 14H17V18H21V14H23V10H12.65Z" class="i pk" transform="translate(65.016171875, 48) scale(0.65)"></path><text x="13" y="86" class="tf">Tag<tspan x="97.69" class="ty">string</tspan></text><path d="M22,18V22H18V19H15V16H12L9.74,13.74C9.19,13.91 8.61,14 8,14A6,6 0 0,1 2,8A6,6 0 0,1 8,2A6,6 0 0,1 14,8C14,8.61 13.91, 9.19 13.74, 9.74L22, 18M7, 5A2, 2 0 0, 0 5, 7A2, 2 0 0, 0 7, 9A2, 2 0 0, 0 9, 7A2, 2 0 0, 0 7, 5Z" class="i uq" transform="translate(52.34625, 75.5) scale(0.5)"></path></svg><svg width="152.7" height="125" x="163" y="76" id="h3908588221" class="t"><rect height="40" width="152.7" class="th"></rect><text x="13" y="25" class="tht">FileTagMap</text><rect height="85" width="152.7" class="t-bg" y="40"></rect><text x="13" y="61" class="tf pk">FileTagMapID<tspan x="139.7" class="ty">int</tspan></text><path d="M7,14A2,2 0 0,1 5,12A2,2 0 0,1 7,10A2,2 0 0,1 9,12A2,2 0 0,1 7,14M12.65,10C11.83,7.67 9.61,6 7, 6A6, 6 0 0, 0 1, 12A6, 6 0 0, 0 7, 18C9.61, 18 11.83, 16.33 12.65, 14H17V18H21V14H23V10H12.65Z" class="i pk" transform="translate(107.02617187499999, 48) scale(0.65)"></path><text x="13" y="86" class="tf fk">FileID<tspan x="139.7" class="ty">int</tspan></text><text x="13" y="111" class="tf fk">TagID<tspan x="139.7" class="ty">int</tspan></text></svg></g></g><text class="qdbd-link" x="10" y="20">www.quickdatabasediagrams.com</text></svg>